<svg xmlns="http://www.w3.org/2000/svg" viewBox="0 0 223.9 50">
<path style="fill:#52C2EE;" d="M14.7,18.3c-1.3-0.8-2.8-1.2-4.5-1.2c-1.3,0-2.6,0.3-3.7,0.8c-1.2,0.5-2.1,1.3-2.9,2.3v-9.2
	c0-0.5-0.2-0.9-0.5-1.3C2.7,9.3,2.3,9.2,1.8,9.2c-0.5,0-0.9,0.2-1.3,0.5C0.2,10,0,10.4,0,10.9v15.6c0,1.8,0.4,3.4,1.3,4.8
	c0.8,1.4,2,2.6,3.4,3.4c1.4,0.8,3,1.2,4.8,1.2c1.8,0,3.4-0.4,4.8-1.2c1.5-0.8,2.6-2,3.4-3.4c0.8-1.4,1.2-3.1,1.2-4.8
	c0-1.8-0.4-3.4-1.2-4.8C17.1,20.2,16,19.1,14.7,18.3z M14.8,29.8c-0.5,1-1.3,1.8-2.2,2.3c-0.9,0.6-2,0.8-3.1,0.8
	c-1.1,0-2.2-0.3-3.1-0.8c-0.9-0.6-1.7-1.3-2.2-2.3c-0.5-1-0.8-2.1-0.8-3.3c0-1.2,0.3-2.3,0.8-3.3c0.5-1,1.3-1.7,2.2-2.3
	c0.9-0.6,2-0.8,3.1-0.8c1.1,0,2.2,0.3,3.1,0.8c0.9,0.6,1.7,1.3,2.2,2.3c0.5,1,0.8,2.1,0.8,3.3C15.6,27.8,15.4,28.8,14.8,29.8z
	 M28.6,32.5h-0.9c-0.5,0-0.9-0.3-1.2-0.8c-0.3-0.5-0.5-1.2-0.5-2.1V10.9c0-0.5-0.2-0.9-0.5-1.2c-0.3-0.3-0.7-0.5-1.2-0.5
	c-0.5,0-0.9,0.2-1.2,0.5c-0.3,0.3-0.5,0.7-0.5,1.2v18.7c0,1.2,0.2,2.3,0.7,3.3c0.4,1,1.1,1.7,1.8,2.3c0.8,0.5,1.7,0.8,2.7,0.8h0.1
	c0.7,0,1.3-0.2,1.7-0.5c0.4-0.3,0.7-0.7,0.7-1.2c0-0.5-0.1-0.9-0.4-1.2C29.4,32.7,29,32.5,28.6,32.5z M48.1,17.2
	c-0.5,0-0.9,0.2-1.3,0.5c-0.3,0.3-0.5,0.7-0.5,1.3v9.7c0,0.8-0.2,1.6-0.7,2.2c-0.4,0.7-1.1,1.2-1.9,1.6c-0.8,0.4-1.7,0.6-2.6,0.6
	c-1.7,0-3-0.5-4-1.4c-1-0.9-1.5-2.3-1.5-4.2v-8.4c0-0.5-0.2-0.9-0.5-1.2c-0.3-0.3-0.8-0.5-1.3-0.5c-0.5,0-0.9,0.2-1.3,0.5
	c-0.3,0.3-0.5,0.7-0.5,1.2v8.4c0,1.8,0.4,3.4,1.1,4.7c0.7,1.3,1.7,2.3,3,3c1.3,0.7,2.7,1,4.3,1c1.1,0,2.2-0.2,3.2-0.6
	c1-0.4,1.9-1,2.6-1.7v0.4c0,0.5,0.2,0.9,0.5,1.2c0.3,0.3,0.8,0.5,1.3,0.5c0.5,0,1-0.2,1.3-0.5c0.3-0.3,0.5-0.7,0.5-1.2V18.9
	c0-0.5-0.2-0.9-0.5-1.3C49,17.3,48.6,17.2,48.1,17.2z M67.1,18.2c-1.3-0.8-2.8-1.2-4.6-1.2c-1.8,0-3.4,0.4-4.8,1.2
	c-1.4,0.8-2.5,1.9-3.3,3.4c-0.8,1.5-1.2,3.1-1.2,4.9c0,1.8,0.4,3.5,1.3,4.9c0.8,1.4,2,2.6,3.5,3.4c1.5,0.8,3.2,1.2,5.1,1.2
	c1.1,0,2.2-0.2,3.3-0.6c1.2-0.4,2.1-0.9,2.9-1.5c0.4-0.3,0.6-0.6,0.6-1c0-0.4-0.2-0.8-0.6-1.2c-0.3-0.2-0.6-0.3-1-0.3
	c-0.4,0-0.8,0.1-1.1,0.4c-0.5,0.4-1.1,0.7-1.8,0.9c-0.7,0.3-1.5,0.4-2.2,0.4c-1.7,0-3.2-0.5-4.4-1.5c-1.2-1-1.9-2.3-2.2-3.9h13.1
	c0.5,0,0.8-0.1,1.1-0.4c0.3-0.3,0.4-0.6,0.4-1.1c0-1.8-0.3-3.4-1-4.8C69.4,20.1,68.4,19,67.1,18.2z M56.4,25
	c0.3-1.5,0.9-2.8,2-3.7c1-0.9,2.4-1.4,4.1-1.4c1.5,0,2.7,0.5,3.7,1.4c0.9,0.9,1.5,2.1,1.7,3.7H56.4z M206.5,9.3
	c-2.1,0-3.8,1.7-3.8,3.7c0,2.1,1.7,3.7,3.8,3.7s3.8-1.7,3.8-3.7C210.2,11,208.5,9.3,206.5,9.3z"/>
<path style="fill:#266494;" d="M99,19c1.2,1.3,1.8,3.1,1.8,5.4v9.8c0,0.5-0.2,0.9-0.5,1.2c-0.3,0.3-0.7,0.5-1.3,0.5
	c-0.5,0-0.9-0.2-1.3-0.5c-0.3-0.3-0.5-0.7-0.5-1.2v-9.8c0-1.4-0.4-2.4-1.1-3.2c-0.7-0.7-1.6-1.1-2.8-1.1c-1.2,0-2.2,0.4-2.9,1.2
	c-0.8,0.8-1.2,1.9-1.2,3.2v9.7c0,0.5-0.2,0.9-0.5,1.2c-0.3,0.3-0.7,0.5-1.3,0.5c-0.5,0-0.9-0.2-1.3-0.5c-0.3-0.3-0.5-0.7-0.5-1.2
	v-9.8c0-1.4-0.4-2.4-1.1-3.2c-0.7-0.7-1.6-1.1-2.8-1.1c-1.2,0-2.2,0.4-3,1.2c-0.8,0.8-1.2,1.9-1.2,3.2v9.7c0,0.5-0.2,0.9-0.5,1.2
	c-0.3,0.3-0.7,0.5-1.3,0.5c-0.5,0-0.9-0.2-1.3-0.5c-0.3-0.3-0.5-0.7-0.5-1.2V19c0-0.5,0.2-0.9,0.5-1.3c0.3-0.3,0.8-0.5,1.3-0.5
	c0.5,0,0.9,0.2,1.2,0.5c0.3,0.3,0.5,0.7,0.5,1.2c0.6-0.6,1.3-1.1,2.1-1.4c0.8-0.3,1.7-0.5,2.7-0.5c1.2,0,2.2,0.2,3.2,0.7
	c0.9,0.5,1.7,1.1,2.3,2c0.7-0.8,1.6-1.5,2.6-2c1-0.5,2.2-0.7,3.4-0.7C96.2,17,97.8,17.7,99,19z"/>
<path style="fill:#266494;" d="M121.3,27.3c-0.3,0.3-0.7,0.4-1.1,0.4h-13.1c0.3,1.6,1,2.9,2.2,3.9c1.2,1,2.7,1.5,4.4,1.5
	c0.7,0,1.4-0.1,2.2-0.4c0.7-0.3,1.4-0.6,1.8-0.9c0.3-0.3,0.7-0.4,1.1-0.4c0.4,0,0.8,0.1,1,0.3c0.4,0.3,0.6,0.7,0.6,1.2
	c0,0.4-0.2,0.8-0.6,1c-0.8,0.6-1.8,1.1-2.9,1.5c-1.2,0.4-2.3,0.6-3.3,0.6c-1.9,0-3.6-0.4-5.1-1.2c-1.5-0.8-2.7-1.9-3.5-3.4
	c-0.8-1.4-1.3-3.1-1.3-4.9c0-1.8,0.4-3.5,1.2-4.9c0.8-1.4,1.9-2.6,3.3-3.4c1.4-0.8,3-1.2,4.8-1.2c1.8,0,3.3,0.4,4.6,1.2
	c1.3,0.8,2.3,1.9,3,3.3c0.7,1.4,1,3,1,4.8C121.8,26.7,121.6,27.1,121.3,27.3z M109.1,21.4c-1,0.9-1.7,2.1-2,3.7h11.5
	c-0.2-1.5-0.8-2.8-1.7-3.7c-0.9-0.9-2.2-1.4-3.7-1.4C111.5,20,110.1,20.5,109.1,21.4z"/>
<path style="fill:#266494;" d="M143.3,9.7c0.3,0.3,0.5,0.7,0.5,1.3v15.6c0,1.8-0.4,3.4-1.3,4.8c-0.8,1.4-2,2.6-3.4,3.4
	c-1.4,0.8-3,1.2-4.8,1.2c-1.8,0-3.4-0.4-4.8-1.2c-1.5-0.8-2.6-2-3.4-3.4c-0.8-1.4-1.2-3.1-1.2-4.8c0-1.8,0.4-3.4,1.2-4.8
	c0.8-1.4,1.8-2.6,3.2-3.4c1.3-0.8,2.8-1.2,4.5-1.2c1.3,0,2.6,0.3,3.7,0.8c1.1,0.5,2.1,1.3,2.9,2.3v-9.2c0-0.5,0.2-0.9,0.5-1.3
	c0.3-0.3,0.8-0.5,1.3-0.5C142.5,9.2,143,9.3,143.3,9.7z M137.4,32.1c0.9-0.6,1.7-1.3,2.2-2.3c0.5-1,0.8-2.1,0.8-3.3
	c0-1.2-0.3-2.3-0.8-3.3c-0.5-1-1.3-1.7-2.2-2.3c-0.9-0.6-2-0.8-3.1-0.8c-1.2,0-2.2,0.3-3.1,0.8c-0.9,0.6-1.7,1.3-2.2,2.3
	c-0.5,1-0.8,2.1-0.8,3.3c0,1.2,0.3,2.3,0.8,3.3c0.5,1,1.3,1.8,2.2,2.3c0.9,0.6,2,0.8,3.1,0.8C135.4,33,136.5,32.7,137.4,32.1z"/>
<path style="fill:#266494;" d="M151.2,34.8c-1.4-0.8-2.6-1.9-3.4-3.4c-0.8-1.4-1.2-3.1-1.2-4.9c0-1.8,0.4-3.5,1.2-4.9
	c0.8-1.4,1.9-2.6,3.4-3.4c1.4-0.8,3.1-1.2,4.9-1.2c1.8,0,3.4,0.4,4.9,1.2c1.4,0.8,2.6,1.9,3.4,3.4c0.8,1.4,1.2,3.1,1.2,4.9
	c0,1.8-0.4,3.5-1.2,4.9c-0.8,1.4-1.9,2.6-3.4,3.4c-1.4,0.8-3.1,1.2-4.9,1.2C154.3,36.1,152.6,35.7,151.2,34.8z M159.3,32.2
	c0.9-0.5,1.7-1.3,2.2-2.3c0.5-1,0.8-2.1,0.8-3.3c0-1.2-0.3-2.3-0.8-3.3c-0.5-1-1.2-1.7-2.2-2.3c-0.9-0.5-2-0.8-3.2-0.8
	c-1.2,0-2.2,0.3-3.2,0.8c-0.9,0.5-1.7,1.3-2.2,2.3c-0.5,1-0.8,2.1-0.8,3.3c0,1.2,0.3,2.3,0.8,3.3c0.5,1,1.3,1.7,2.2,2.3
	c0.9,0.5,2,0.8,3.2,0.8C157.3,33,158.3,32.7,159.3,32.2z"/>
<path style="fill:#266494;" d="M180.9,17.5c0.7,0.4,1,0.8,1,1.4c0,0.2,0,0.3,0,0.3c-0.2,0.7-0.7,1.1-1.4,1.1c-0.1,0-0.3,0-0.5-0.1
	c-0.9-0.2-1.7-0.2-2.2-0.2c-1.7,0-3,0.4-4,1.1c-1,0.8-1.5,1.8-1.5,3v10c0,0.5-0.1,1-0.4,1.3c-0.3,0.3-0.7,0.4-1.3,0.4
	c-0.6,0-1-0.1-1.3-0.4c-0.3-0.3-0.4-0.7-0.4-1.3V18.9c0-0.5,0.1-1,0.4-1.3c0.3-0.3,0.7-0.4,1.3-0.4c1.1,0,1.7,0.6,1.7,1.7v0.7
	c0.7-0.8,1.5-1.4,2.6-1.9c1-0.5,2.1-0.7,3.2-0.7C179.2,17,180.2,17.2,180.9,17.5z"/>
<path style="fill:#266494;" d="M197.2,18.3c1.4,0.8,2.6,2,3.4,3.4c0.8,1.4,1.3,3.1,1.3,4.8v7.6c0,0.5-0.2,0.9-0.5,1.2
	c-0.3,0.3-0.8,0.5-1.3,0.5c-0.5,0-0.9-0.2-1.3-0.5c-0.3-0.3-0.5-0.7-0.5-1.2v-1.3c-0.8,1-1.8,1.7-2.9,2.3c-1.1,0.5-2.4,0.8-3.7,0.8
	c-1.7,0-3.2-0.4-4.5-1.2c-1.3-0.8-2.4-2-3.2-3.4c-0.8-1.4-1.2-3.1-1.2-4.8c0-1.8,0.4-3.4,1.2-4.8c0.8-1.4,2-2.6,3.4-3.4
	c1.5-0.8,3.1-1.2,4.8-1.2C194.1,17.1,195.7,17.5,197.2,18.3z M195.5,32.1c0.9-0.6,1.7-1.3,2.2-2.3c0.5-1,0.8-2.1,0.8-3.3
	c0-1.2-0.3-2.3-0.8-3.3c-0.5-1-1.3-1.8-2.2-2.3c-0.9-0.6-2-0.8-3.1-0.8c-1.2,0-2.2,0.3-3.1,0.8c-0.9,0.6-1.7,1.3-2.2,2.3
	c-0.5,1-0.8,2.1-0.8,3.3c0,1.2,0.3,2.3,0.8,3.3c0.5,1,1.3,1.7,2.2,2.3c0.9,0.6,2,0.8,3.1,0.8C193.5,33,194.6,32.7,195.5,32.1z"/>
<path style="fill:#266494;" d="M211.5,0.6c-1.2,0-2.2,0.5-2.9,1.4c-0.9,1.2-1,3-0.3,4.2c0.7,1.2,1.8,1.8,3.4,1.9
	c2.5,0.2,4.6,2,4.8,4.5l0,0l0,0c0,0.2,0,0.7,0,0.8l0,0l0,0c-0.1,0.5-0.2,1-0.4,1.5c-0.8,1.8-2.3,2.8-4.8,3c-2.1,0.2-3.5,1.7-3.5,3.7
	c0,2.2,1.4,3.7,3.5,3.8c2.3,0.1,3.9-1.3,4.1-3.7c0.2-2.4,1.5-4.1,3.5-4.8c0.3-0.1,0.6-0.1,0.9-0.2c0,0,0.1,0,0.2,0l0.1,0
	c0.2,0,0.5-0.1,0.5-0.1c2-0.2,3.4-1.7,3.4-3.7c0-2.1-1.5-3.6-3.6-3.8c-0.1,0-0.3,0-0.6-0.1c-0.1,0-0.2,0-0.3,0c-1-0.2-2-0.6-2.6-1.3
	c-1-1.1-1.5-2.3-1.6-3.8c-0.1-1.7-1-2.9-2.7-3.3C212.4,0.7,212,0.6,211.5,0.6z"/>
</svg>
